<svg width="24" height="24" viewBox="0 0 24 24" fill="none" xmlns="http://www.w3.org/2000/svg">
<path fill-rule="evenodd" clip-rule="evenodd" d="M17.2999 6.29998C16.9099 5.90998 16.2799 5.90998 15.8899 6.29998L10.2499 11.94L11.6599 13.35L17.2999 7.69998C17.6799 7.31998 17.6799 6.67998 17.2999 6.29998ZM21.5399 6.28998L11.6599 16.17L8.17989 12.7C7.78989 12.31 7.15989 12.31 6.76989 12.7C6.37989 13.09 6.37989 13.72 6.76989 14.11L10.9499 18.29C11.3399 18.68 11.9699 18.68 12.3599 18.29L22.9499 7.70998C23.3399 7.31998 23.3399 6.68998 22.9499 6.29998H22.9399C22.5599 5.89998 21.9299 5.89998 21.5399 6.28998ZM1.11989 14.12L5.29989 18.3C5.68989 18.69 6.31989 18.69 6.70989 18.3L7.40989 17.6L2.52989 12.7C2.13989 12.31 1.50989 12.31 1.11989 12.7C0.729893 13.09 0.729893 13.73 1.11989 14.12Z" fill="white"/>
</svg>
