<svg width="48" height="48" viewBox="0 0 48 48" fill="none" xmlns="http://www.w3.org/2000/svg">
<path d="M44.5834 36.3453C46.8248 32.618 48.0062 28.3494 48 24C48 10.745 37.2542 0 23.9998 0C10.7449 0 2.39909e-05 10.7454 2.39909e-05 24C-0.00613982 28.3495 1.17552 32.6182 3.41751 36.3453L3.33015 36.4153L3.43446 36.3749C7.63514 43.3403 15.2729 48 23.9998 48C32.7271 48 40.364 43.3403 44.5642 36.3749L44.6685 36.4153L44.5834 36.3453ZM45.0515 24C45.0556 27.6754 44.092 31.2871 42.2577 34.472L27.4107 22.514L24.3657 2.95898C35.8221 3.15457 45.0515 12.4966 45.0515 24ZM2.95072 24C2.95072 12.497 12.1792 3.155 23.6356 2.95898L20.5906 22.514L5.74364 34.472C3.90989 31.2869 2.94666 27.6753 2.95072 24ZM24.0007 45.0501C16.5311 45.0501 9.97475 41.1558 6.23868 35.2905L24.0007 28.4189L41.7626 35.2909C38.0261 41.1558 31.471 45.0501 24.0007 45.0501Z" fill="#838383"/>
</svg>
