<svg width="144" height="149" viewBox="0 0 144 149" fill="none" xmlns="http://www.w3.org/2000/svg">
<path d="M187.622 152.953C197.054 137.267 202.026 119.304 202 101C202 45.2185 156.778 0 100.999 0C45.2182 0 0.000100962 45.2204 0.000100962 101C-0.0258384 119.304 4.94699 137.268 14.382 152.953L14.0144 153.248L14.4534 153.078C32.1312 182.39 64.2733 202 100.999 202C137.727 202 169.865 182.39 187.541 153.078L187.98 153.248L187.622 152.953ZM189.592 101C189.609 116.467 185.554 131.667 177.834 145.07L115.354 94.7464L102.539 12.4524C150.751 13.2755 189.592 52.5897 189.592 101ZM12.4176 101C12.4176 52.5916 51.2541 13.2773 99.4663 12.4524L86.6519 94.7464L24.1712 145.07C16.4541 131.666 12.4005 116.467 12.4176 101ZM101.003 189.586C69.5685 189.586 41.9771 173.197 26.2545 148.514L101.003 119.596L175.751 148.516C160.027 173.197 132.441 189.586 101.003 189.586Z" fill="#e8e8e8"/>
</svg>
