<svg width="25" height="24" viewBox="0 0 25 24" fill="none" xmlns="http://www.w3.org/2000/svg">
<path fill-rule="evenodd" clip-rule="evenodd" d="M18.75 8C18.75 4.69 16.06 2 12.75 2C9.44 2 6.75 4.69 6.75 8C6.75 11.49 10.37 16.19 11.98 18.12C12.38 18.6 13.11 18.6 13.51 18.12C15.13 16.19 18.75 11.49 18.75 8ZM10.75 8C10.75 6.9 11.65 6 12.75 6C13.85 6 14.75 6.9 14.75 8C14.75 9.1 13.86 10 12.75 10C11.65 10 10.75 9.1 10.75 8ZM5.75 21C5.75 21.55 6.2 22 6.75 22H18.75C19.3 22 19.75 21.55 19.75 21C19.75 20.45 19.3 20 18.75 20H6.75C6.2 20 5.75 20.45 5.75 21Z" fill="white"/>
</svg>
