<svg width="25" height="24" viewBox="0 0 25 24" fill="none" xmlns="http://www.w3.org/2000/svg">
<path fill-rule="evenodd" clip-rule="evenodd" d="M12.24 2C6.72 2 2.25 6.48 2.25 12C2.25 17.52 6.72 22 12.24 22C17.77 22 22.25 17.52 22.25 12C22.25 6.48 17.77 2 12.24 2ZM12.25 20C7.83 20 4.25 16.42 4.25 12C4.25 7.58 7.83 4 12.25 4C16.67 4 20.25 7.58 20.25 12C20.25 16.42 16.67 20 12.25 20ZM12.03 7H11.97C11.57 7 11.25 7.32 11.25 7.72V12.44C11.25 12.79 11.43 13.12 11.74 13.3L15.89 15.79C16.23 15.99 16.67 15.89 16.87 15.55C17.08 15.21 16.97 14.76 16.62 14.56L12.75 12.26V7.72C12.75 7.32 12.43 7 12.03 7Z" fill="white"/>
</svg>
